<svg xmlns="http://www.w3.org/2000/svg" xmlns:xlink="http://www.w3.org/1999/xlink" version="1.1" x="0px" y="0px" viewBox="0 0 100 125" enable-background="new 0 0 100 100" xml:space="preserve"><path d="M49.884,5.096C25.096,5.096,5,25.193,5,49.98C5,74.77,25.096,94.866,49.884,94.866c24.789,0,44.884-20.097,44.884-44.886  C94.768,25.193,74.673,5.096,49.884,5.096z M40.931,24.212c0.06-0.615,0.272-1.264,0.603-1.865c0.351-0.604,0.876-1.106,1.457-1.473  c0.291-0.16,0.604-0.314,0.899-0.425l0.442-0.151l0.466-0.115c0.631-0.134,1.319-0.174,2.003-0.05  c0.684,0.12,1.344,0.407,1.899,0.799c1.119,0.794,1.826,1.902,2.333,3.014c0.266,0.595,0.473,1.204,0.64,1.819  c0.475-0.973,1.025-1.906,1.664-2.792c0.709-0.96,1.532-1.864,2.555-2.592c0.243-0.193,0.537-0.338,0.809-0.502  c0.274-0.145,0.548-0.26,0.823-0.389c0.279-0.115,0.572-0.21,0.859-0.314c0.298-0.08,0.597-0.158,0.9-0.221  c1.215-0.223,2.591-0.151,3.776,0.48c1.183,0.629,2.04,1.73,2.447,2.851c0.431,1.121,0.55,2.271,0.53,3.304  c-0.004,0.263,0.024,0.524-0.008,0.786c-0.026,0.26-0.055,0.52-0.081,0.776c-0.032,0.519-0.165,1.014-0.278,1.506  c-0.481,1.968-1.431,3.629-2.379,4.99c-0.953,1.368-1.905,2.49-2.704,3.488c-0.804,0.991-1.444,1.852-1.93,2.582  c-0.47,0.735-0.758,1.319-0.976,1.756c-0.265,0.457-0.602,0.742-1.005,0.896c-0.404,0.15-0.863,0.168-1.256,0.045  c-0.393-0.124-0.717-0.394-0.851-0.826c-0.127-0.427-0.093-1.048,0.33-1.71c0.283-0.497,0.805-1.11,1.416-1.88  c0.625-0.757,1.391-1.631,2.268-2.58c0.868-0.953,1.837-1.994,2.747-3.186c0.91-1.191,1.739-2.557,2.177-4.146  c0.103-0.397,0.229-0.798,0.261-1.224c0.028-0.211,0.057-0.423,0.085-0.637c0.036-0.213,0.011-0.435,0.02-0.655  c0.042-0.896-0.047-1.757-0.326-2.539c-0.268-0.788-0.777-1.415-1.45-1.801c-0.681-0.38-1.56-0.465-2.459-0.316  c-0.226,0.045-0.453,0.103-0.681,0.159c-0.225,0.082-0.453,0.15-0.678,0.24c-0.221,0.104-0.454,0.198-0.668,0.306  c-0.197,0.123-0.407,0.214-0.597,0.366c-0.786,0.545-1.497,1.296-2.119,2.132c-1.003,1.371-1.746,3.023-2.37,4.605  s-0.57,1.841-1.023,2.335c-0.675,0.737-1.252,0.28-1.293-1.016c-0.009-0.29-0.01-1.014-0.017-1.268  c-0.011-0.376-0.023-0.774-0.121-1.356c-0.155-0.929-0.421-1.84-0.796-2.674c-0.413-0.911-0.987-1.726-1.692-2.207  c-0.7-0.486-1.507-0.604-2.357-0.408l-0.317,0.082l-0.317,0.113c-0.202,0.082-0.369,0.175-0.545,0.267  c-0.313,0.214-0.569,0.463-0.745,0.774c-0.34,0.63-0.416,1.493-0.282,2.363c0.125,0.87,0.39,1.744,0.74,2.561  c0.331,0.804,0.813,1.606,1.225,2.383c0.413,0.781,0.895,1.502,1.317,2.214c0.443,0.705,0.904,1.366,1.328,2.006  c0.881,1.269,1.707,2.408,2.471,3.403c0.75,0.997,1.436,1.853,1.999,2.552c0.565,0.703,1.049,1.221,1.355,1.607  c2.199,2.823-0.608,4.669-2.602,1.875c-0.271-0.402-0.618-1.024-1.106-1.778c-0.499-0.757-1.104-1.674-1.801-2.731  c-0.707-1.054-1.493-2.261-2.34-3.603c-0.411-0.681-0.856-1.378-1.291-2.126c-0.416-0.761-0.888-1.519-1.298-2.356  c-0.412-0.836-0.88-1.65-1.262-2.633c-0.38-0.957-0.678-1.988-0.814-3.113C40.869,25.423,40.854,24.83,40.931,24.212z   M82.587,54.279c-0.038,0.233-0.077,0.467-0.116,0.704c-0.067,0.477-0.184,0.938-0.297,1.405c-0.964,3.73-2.689,7.352-4.783,11.104  c-1.098,1.853-2.345,3.725-3.93,5.438c-1.576,1.705-3.533,3.256-5.821,4.213c-0.561,0.263-1.149,0.446-1.733,0.654  c-0.59,0.169-1.182,0.35-1.78,0.478c-1.192,0.281-2.394,0.48-3.579,0.674l-0.447,0.074l-0.495,0.05  c-0.33,0.028-0.664,0.074-0.992,0.083c-0.644-0.019-1.305,0.011-1.933-0.073l-0.956-0.092l-0.94-0.146  c-0.632-0.087-1.248-0.22-1.868-0.349c-4.945-1.054-9.75-2.895-14.59-4.377l-0.898-0.249l-0.876-0.199l-0.893-0.101  c-0.298-0.03-0.59-0.085-0.899-0.072c-0.614,0.004-1.222-0.038-1.846,0.029l-0.932,0.062c-0.312,0.031-0.627,0.076-0.939,0.113  c-1.254,0.145-2.512,0.382-3.813,0.59c-0.664,0.103-1.281,0.216-2.125,0.217c-0.125-0.01-0.249-0.022-0.373-0.038  c-0.116-0.023-0.223-0.062-0.334-0.093c-0.231-0.061-0.418-0.157-0.604-0.256c-0.198-0.092-0.354-0.208-0.518-0.32  c-0.169-0.11-0.31-0.234-0.451-0.357c-0.564-0.496-1.033-1.037-1.439-1.599c-0.412-0.562-0.78-1.14-1.111-1.734  c-0.667-1.185-1.216-2.418-1.659-3.694c-0.426-1.274-0.8-2.554-1.016-3.898c-0.214-1.338-0.349-2.717-0.073-4.178  c0.046-0.195,0.068-0.385,0.136-0.582l0.252-0.669c0.194-0.421,0.553-0.743,0.968-0.957c0.239-0.124,0.384-0.179,0.558-0.242  c0.167-0.058,0.333-0.112,0.491-0.152c0.643-0.173,1.253-0.266,1.858-0.347c1.21-0.156,2.394-0.231,3.557-0.327  c0.579-0.049,1.154-0.099,1.696-0.175c0.267-0.037,0.531-0.086,0.727-0.143c0.056-0.013,0.076-0.028,0.117-0.04l0.143-0.069  c0.092-0.038,0.208-0.112,0.316-0.174c0.906-0.561,1.922-1.306,2.983-1.906c2.244-1.301,4.787-2.093,7.303-2.312  c1.253-0.117,2.533-0.117,3.806,0.098c1.27,0.209,2.535,0.649,3.629,1.344c2.232,1.366,3.521,3.541,4.993,4.695  c0.738,0.574,1.502,0.88,2.386,0.9c0.434,0.03,0.893-0.033,1.35-0.101c0.544-0.094,1.084-0.177,1.622-0.239  c2.154-0.25,4.256-0.264,6.276-0.082c2.021,0.19,3.96,0.546,5.801,1.241c0.668,0.26,1.336,0.572,1.995,1.027  c0.329,0.227,0.658,0.496,0.962,0.858c0.3,0.354,0.594,0.823,0.7,1.41c0.119,0.641,0.128,1.292,0.028,1.917  c-0.112,0.617-0.312,1.195-0.566,1.726c-0.255,0.532-0.567,1.011-0.907,1.459c-0.168,0.226-0.349,0.439-0.535,0.647  c-0.094,0.107-0.188,0.201-0.293,0.311c-0.149,0.147-0.302,0.294-0.475,0.434l-0.1,0.066l-0.025,0.017  c-0.009-0.006,0.003,0.026-0.023-0.012l-0.014,0.008l-0.052,0.029c-0.068,0.042-0.144,0.072-0.214,0.108  c-0.143,0.069-0.311,0.089-0.463,0.134l-0.345,0.071l-0.275,0.049c-0.357,0.058-0.708,0.115-1.053,0.171  c-0.677,0.096-1.33,0.189-1.957,0.278c-1.25,0.159-2.396,0.307-3.431,0.438c-2.067,0.247-3.681,0.466-4.82,0.569  c-4.096,0.384-6.208-0.472-6.15-1.297c0.056-0.822,1.985-1.621,5.918-1.915c1.102-0.064,2.72-0.11,4.769-0.262  c1.025-0.079,2.16-0.174,3.393-0.295c0.612-0.066,1.25-0.136,1.912-0.208c0.323-0.042,0.652-0.084,0.988-0.128  c0.139-0.021,0.278-0.043,0.418-0.066c0.03-0.005,0.063-0.003,0.086-0.023l0.061-0.051c0.064-0.066,0.146-0.142,0.213-0.217  c0.143-0.15,0.281-0.306,0.408-0.468c0.255-0.32,0.486-0.656,0.66-1c0.174-0.343,0.298-0.688,0.372-1.026  c0.061-0.336,0.058-0.664-0.005-0.976c0.008-0.088-0.212-0.448-0.629-0.736c-0.401-0.297-0.909-0.565-1.449-0.791  c-1.508-0.606-3.283-0.979-5.132-1.177c-1.854-0.197-3.811-0.21-5.797-0.008c-0.496,0.052-0.993,0.122-1.492,0.202  c-0.589,0.083-1.197,0.158-1.841,0.112c-1.279-0.027-2.646-0.591-3.625-1.404c-1.001-0.807-1.711-1.726-2.447-2.537  c-0.725-0.813-1.461-1.543-2.317-2.079c-1.69-1.102-3.884-1.385-6.136-1.184c-2.249,0.184-4.457,0.852-6.488,2.011  c-0.986,0.552-1.866,1.2-2.964,1.878c-0.148,0.084-0.281,0.168-0.462,0.25l-0.258,0.119c-0.101,0.036-0.219,0.083-0.305,0.104  c-0.376,0.107-0.695,0.156-1.01,0.202c-0.626,0.083-1.223,0.134-1.816,0.18c-1.18,0.093-2.344,0.164-3.464,0.304  c-0.556,0.072-1.11,0.157-1.598,0.289c-0.125,0.03-0.236,0.069-0.347,0.104c-0.102,0.035-0.227,0.089-0.242,0.098  c-0.095,0.047-0.193,0.119-0.222,0.229l-0.033,0.093l-0.071,0.177c-0.047,0.119-0.061,0.268-0.096,0.401  c-0.207,1.052-0.12,2.28,0.078,3.472c0.188,1.201,0.539,2.411,0.929,3.585c0.403,1.167,0.912,2.311,1.516,3.382  c0.598,1.064,1.311,2.102,2.131,2.822c0.398,0.359,0.849,0.593,1.116,0.599c0.439-0.002,1.115-0.094,1.727-0.198  c1.262-0.2,2.556-0.447,3.876-0.603c0.332-0.04,0.659-0.086,0.991-0.118l1.006-0.07c0.665-0.07,1.354-0.032,2.032-0.034  c0.338-0.013,0.686,0.045,1.03,0.081l1.034,0.118l1.012,0.227l0.96,0.264c2.51,0.748,4.907,1.587,7.311,2.341  c2.396,0.754,4.781,1.449,7.148,1.942c0.591,0.118,1.181,0.243,1.768,0.319l0.877,0.131l0.869,0.077  c0.584,0.075,1.14,0.038,1.706,0.054c0.276-0.01,0.54-0.052,0.81-0.074l0.403-0.04l0.444-0.076c1.187-0.203,2.338-0.405,3.441-0.675  c0.558-0.123,1.088-0.292,1.622-0.448c0.516-0.191,1.041-0.356,1.525-0.593c1.988-0.854,3.658-2.202,5.069-3.756  c1.412-1.557,2.562-3.316,3.578-5.082c1.95-3.596,3.583-7.205,4.368-10.548c0.094-0.417,0.19-0.83,0.237-1.235  c0.03-0.203,0.06-0.404,0.089-0.605c0.013-0.197,0.026-0.392,0.039-0.587c0.046-0.395,0.001-0.758,0.004-1.127  c-0.05-0.349-0.072-0.705-0.168-1.012c-0.309-1.266-1.125-2.035-2.116-2.251c-0.635-0.143-1.365-0.081-2.009,0.183  c-0.321,0.127-0.633,0.291-0.89,0.502c-0.029-0.003-0.231,0.229-0.375,0.382c-0.154,0.163-0.308,0.331-0.458,0.544  c-0.293,0.392-0.587,0.785-0.883,1.127l-1.352-1.345c-0.117-0.113-0.228-0.237-0.367-0.326l-0.189-0.137l-0.069-0.04  c-0.09-0.062-0.186-0.1-0.28-0.134c-0.622-0.275-1.104-0.163-1.522,0.03c-0.419,0.22-0.79,0.558-1.088,0.932  c-1.264,1.62-2.388,3.047-3.262,2.899c-0.417-0.056-0.707-0.46-0.726-1.297c0.026-0.818,0.22-2.135,1.546-3.704  c0.252-0.275,0.523-0.58,0.915-0.867c0.184-0.148,0.378-0.3,0.622-0.428c0.238-0.13,0.465-0.281,0.76-0.375  c1.09-0.461,2.685-0.525,3.987,0.162c0.166,0.083,0.339,0.16,0.492,0.27c0.074,0.048,0.148,0.098,0.225,0.149  c0,0.002-0.01,0-0.002,0.009c0.024,0.025,0.053,0.062,0.087,0.103c0.032-0.029,0.054-0.048,0.131-0.1  c0.089-0.062,0.182-0.125,0.273-0.19c0.12-0.083,0.241-0.166,0.371-0.233c0.252-0.152,0.523-0.28,0.805-0.398  c1.125-0.449,2.491-0.662,3.896-0.292c0.937,0.227,1.859,0.767,2.555,1.521c0.711,0.759,1.167,1.734,1.385,2.701  c0.13,0.489,0.158,0.97,0.21,1.461c-0.006,0.476,0.026,0.971-0.034,1.44C82.629,53.799,82.608,54.037,82.587,54.279z"/><text x="0" y="115" fill="#000000" font-size="5px" font-weight="bold" font-family="'Helvetica Neue', Helvetica, Arial-Unicode, Arial, Sans-serif">Created by Veronika Geertsema König</text><text x="0" y="120" fill="#000000" font-size="5px" font-weight="bold" font-family="'Helvetica Neue', Helvetica, Arial-Unicode, Arial, Sans-serif">from the Noun Project</text></svg>